<svg class="thumb" width="753" height="222" viewBox="0,0,753,222" xmlns="http://www.w3.org/2000/svg" xmlns:inkscape="http://www.inkscape.org/namespaces/inkscape" xmlns:sodipodi="http://sodipodi.sourceforge.net/DTD/sodipodi-0.dtd" xmlns:xlink="http://www.w3.org/1999/xlink" xmlns:ns1="http://www.inkscape.org/namespaces/inkscape" xmlns:sketch="http://www.bohemiancoding.com/sketch/ns" data-guid="e5a13ff5-2630-486d-b919-fbe47b86c6f5"><defs></defs><g><g transform="matrix(1.6163,0,0,1.6163,279.4592,0.4223)"><svg width="96" height="83.99989682324326" viewBox="2,960.36303,96,83.99989682324326"><defs><linearGradient x1="0" y1="0.5" x2="1" y2="0.5" id="linearGradientSk9lrvxnu275"><stop offset="0%" stop-color="#292f38"></stop><stop offset="100%" stop-color="#292f38"></stop></linearGradient></defs><g><path style="text-indent: 0px; text-transform: none; direction: ltr; baseline-shift: baseline; color: rgb(0, 0, 0);" d="m 12,965.36303 c -2.7526942,0 -5,2.24729 -5,4.99994 l 0,49.99943 c 0,2.7527 2.2473058,4.9999 5,4.9999 l 30,0 0,11.9999 -5,0 c -0.52302,0 -0.998894,0.4764 -0.998894,1 0,0.5236 0.475874,1 0.998894,1 8.65625,0 17.3125,0 25.96875,0 0.578108,0.024 1.104502,-0.5504 1.03125,-1.125 -0.06117,-0.4918 -0.536655,-0.8952 -1.03125,-0.875 l -4.96875,0 0,-11.9999 30,0 c 2.752694,0 5,-2.2472 5,-4.9999 l 0,-49.99943 c 0,-2.75265 -2.247306,-4.99994 -5,-4.99994 z m 0,1.99997 76,0 c 1.679306,0 3,1.32074 3,2.99997 l 0,49.99943 c 0,1.6793 -1.320694,3 -3,3 l -76,0 c -1.679306,0 -3,-1.3207 -3,-3 l 0,-49.99943 c 0,-1.67923 1.320694,-2.99997 3,-2.99997 z m 43.875,11.96862 c -0.363198,0.0475 -0.689655,0.31117 -0.8125,0.65624 l -12,29.99964 c -0.188184,0.4909 0.08722,1.1087 0.578096,1.2969 0.490874,0.1882 1.10872,-0.087 1.296904,-0.5781 l 12,-29.9997 c 0.26994,-0.64786 -0.367491,-1.47276 -1.0625,-1.37498 z m -19.90625,4.99994 c -0.165992,0.012 -0.328759,0.0663 -0.46875,0.15625 l -18,9.99988 c -0.621399,0.34395 -0.621399,1.40603 0,1.74998 l 18,9.99993 c 0.458154,0.2618 1.11321,0.083 1.37501,-0.375 0.261799,-0.4582 0.08314,-1.1132 -0.37501,-1.375 L 20.0625,995.36268 36.5,986.23779 c 0.434082,-0.19274 0.685028,-0.725 0.557524,-1.18251 -0.127505,-0.45751 -0.617571,-0.78327 -1.088774,-0.72372 z m 27.9375,0 c -0.448043,0.007 -0.868091,0.35324 -0.961492,0.7915 -0.0934,0.43826 0.149169,0.92525 0.555242,1.11473 l 16.4375,9.12489 -16.4375,9.12492 c -0.458154,0.2618 -0.636809,0.9168 -0.37501,1.375 0.2618,0.4581 0.916856,0.6368 1.37501,0.375 l 18,-9.99993 c 0.621399,-0.34395 0.621399,-1.40603 0,-1.74998 l -18,-9.99988 c -0.175203,-0.11213 -0.386047,-0.16761 -0.59375,-0.15625 z M 44,1025.3623 l 12,0 0,11.9999 -12,0 z" fill="url('#linearGradientSk9lrvxnu275')" fill-opacity="1" stroke="none" marker="none" visibility="visible" display="inline" overflow="visible"></path></g></svg></g><g transform="matrix(0.7671,0,0,0.7671,80.7557,144.259)"><svg width="720.3" height="163" style="overflow: visible;"><defs><linearGradient x1="0" y1="0.5" x2="1" y2="0.5" id="linearGradientSk9lrvxnu27m"><stop offset="0%" stop-color="#292f38"></stop><stop offset="100%" stop-color="#292f38"></stop></linearGradient></defs><g transform="matrix(1,0,0,1,0,77.25)"><path d="M 10.2-13.8L 10.2-13.8L 10.2-6.9Q 16.9-3.7  27.2-3.7Q 37.5-3.7  42.7-6.95Q 47.9-10.2  47.9-16.15Q 47.9-22.1  43-25Q 38.1-27.9  27.4-29.95Q 16.7-32  11.35-35.4Q 6-38.8  6-46.1L 6-46.1Q 6-61.8  29.3-61.8L 29.3-61.8Q 41.7-61.8  49.8-57.3L 49.8-57.3Q 51.3-56.4  51.3-55.2L 51.3-55.2L 51.3-47Q 51.3-46  50.5-45.35Q 49.7-44.7  48.6-44.7Q 47.5-44.7  46.7-45.35Q 45.9-46  45.9-47L 45.9-47L 45.9-53.9Q 39-57.1  29.55-57.1Q 20.1-57.1  15.75-54.4Q 11.4-51.7  11.4-46.1L 11.4-46.1Q 11.4-40.8  17-38.2L 17-38.2Q 20.8-36.3  27.25-34.95Q 33.7-33.6  36.4-32.9Q 39.1-32.2  42.7-30.75Q 46.3-29.3  48.3-27.5Q 50.3-25.7  51.8-22.75Q 53.3-19.8  53.3-16L 53.3-16Q 53.3-8.2  46.75-3.6Q 40.2 1  28 1L 28 1Q 22.4 1  15.9-0.25Q 9.4-1.5  6.1-3.6L 6.1-3.6Q 4.8-4.4  4.8-5.6L 4.8-5.6L 4.8-13.8Q 4.8-14.8  5.6-15.45Q 6.4-16.1  7.5-16.1Q 8.6-16.1  9.4-15.45Q 10.2-14.8  10.2-13.8ZM 89.79999999999998-6.4Q 90.6-6.9  91.64999999999999-6.7Q 92.69999999999999-6.5  93.1-5.85Q 93.49999999999999-5.2  93.49999999999999-4.7L 93.49999999999999-4.7Q 93.49999999999999-3.2  92.39999999999999-2.5L 92.39999999999999-2.5Q 86.39999999999999 1  79.49999999999999 1Q 72.6 1  69.6-1.85Q 66.6-4.7  66.6-11.3L 66.6-11.3L 66.6-32.7L 60.999999999999986-32.7Q 59.999999999999986-32.7  59.34999999999999-33.35Q 58.69999999999999-34  58.69999999999999-35Q 58.69999999999999-36  59.34999999999999-36.7Q 59.999999999999986-37.4  60.999999999999986-37.4L 60.999999999999986-37.4L 66.6-37.4L 66.6-51.7Q 66.6-52.7  67.39999999999999-53.35Q 68.19999999999999-54  69.29999999999998-54Q 70.39999999999999-54  71.19999999999999-53.35Q 71.99999999999999-52.7  71.99999999999999-51.7L 71.99999999999999-51.7L 71.99999999999999-37.4L 88.79999999999998-37.4Q 89.79999999999998-37.4  90.44999999999999-36.7Q 91.1-36  91.1-35Q 91.1-34  90.44999999999999-33.35Q 89.79999999999998-32.7  88.79999999999998-32.7L 88.79999999999998-32.7L 71.99999999999999-32.7L 71.99999999999999-11.3Q 71.99999999999999-7.1  73.74999999999999-5.35Q 75.49999999999999-3.6  80.24999999999999-3.6Q 84.99999999999999-3.6  89.79999999999998-6.4L 89.79999999999998-6.4ZM 129.2-22Q 128.89999999999998-27.4  126.05-30.6Q 123.19999999999999-33.8  117.85-33.8Q 112.5-33.8  108.89999999999999-30.55Q 105.3-27.3  104.39999999999999-22L 104.39999999999999-22L 129.2-22ZM 129.39999999999998-9.6L 129.39999999999998-9.6Q 130.1-10.8  131-10.8Q 131.89999999999998-10.8  132.8-10.35Q 133.7-9.9  134.05-8.95Q 134.39999999999998-8  133.89999999999998-7.2L 133.89999999999998-7.2Q 128.8 1  117.69999999999999 1L 117.69999999999999 1Q 108.89999999999999 1  103.85-4.65Q 98.8-10.3  98.8-18.9Q 98.8-27.5  104-32.95Q 109.19999999999999-38.4  117.69999999999999-38.4Q 126.19999999999999-38.4  130.35-33.3Q 134.5-28.2  134.5-19.7L 134.5-19.7Q 134.5-17.4  131.89999999999998-17.4L 131.89999999999998-17.4L 104.19999999999999-17.3Q 104.6-11.1  108.25-7.35Q 111.89999999999999-3.6  117.69999999999999-3.6L 117.69999999999999-3.6Q 125.5-3.6  129.39999999999998-9.6ZM 153.89999999999995-4.7L 153.89999999999995-4.7L 157.79999999999993-4.7Q 158.79999999999993-4.7  159.44999999999993-4Q 160.09999999999994-3.3  160.09999999999994-2.3Q 160.09999999999994-1.3  159.44999999999993-0.65Q 158.79999999999993 0  157.79999999999993 0L 157.79999999999993 0L 153.89999999999995 0Q 145.79999999999993 0  145.79999999999993-6.5L 145.79999999999993-6.5L 145.79999999999993-70.3L 139.19999999999993-70.3Q 138.19999999999993-70.3 137.54999999999993-70.95Q 136.89999999999995-71.6 136.89999999999995-72.6Q 136.89999999999995-73.6 137.54999999999993-74.3Q 138.19999999999993-75  139.19999999999993-75L 139.19999999999993-75L 148.49999999999994-75Q 149.59999999999994-75  150.39999999999995-74.3Q 151.19999999999993-73.6  151.19999999999993-72.6L 151.19999999999993-72.6L 151.19999999999993-6.6Q 151.19999999999993-4.7  153.89999999999995-4.7ZM 176.5-4.7L 176.5-4.7L 180.39999999999998-4.7Q 181.39999999999998-4.7  182.04999999999998-4Q 182.7-3.3  182.7-2.3Q 182.7-1.3  182.04999999999998-0.65Q 181.39999999999998 0  180.39999999999998 0L 180.39999999999998 0L 176.5 0Q 168.39999999999998 0  168.39999999999998-6.5L 168.39999999999998-6.5L 168.39999999999998-70.3L 161.79999999999998-70.3Q 160.79999999999998-70.3 160.14999999999998-70.95Q 159.5-71.6 159.5-72.6Q 159.5-73.6 160.14999999999998-74.3Q 160.79999999999998-75  161.79999999999998-75L 161.79999999999998-75L 171.1-75Q 172.2-75  173-74.3Q 173.79999999999998-73.6  173.79999999999998-72.6L 173.79999999999998-72.6L 173.79999999999998-6.6Q 173.79999999999998-4.7  176.5-4.7ZM 215.19999999999996-13.6L 215.19999999999996-15.5Q 208.59999999999997-17.3  203.94999999999996-17.3Q 199.29999999999995-17.3  196.34999999999997-15.5Q 193.39999999999995-13.7  193.39999999999995-10.45Q 193.39999999999995-7.2  195.29999999999995-5.4Q 197.19999999999996-3.6  200.49999999999994-3.6L 200.49999999999994-3.6Q 209.69999999999996-3.6  215.19999999999996-13.6L 215.19999999999996-13.6ZM 223.19999999999996-4.7L 223.19999999999996-4.7L 227.09999999999997-4.7Q 228.09999999999997-4.7  228.74999999999994-4Q 229.39999999999995-3.3  229.39999999999995-2.3Q 229.39999999999995-1.3  228.74999999999994-0.65Q 228.09999999999997 0  227.09999999999997 0L 227.09999999999997 0L 222.69999999999996 0Q 219.09999999999997 0  217.14999999999995-1.6Q 215.19999999999996-3.2  215.19999999999996-6.1L 215.19999999999996-6.1Q 215.19999999999996-6.6  215.29999999999995-7.2L 215.29999999999995-7.2Q 209.99999999999994 1  199.89999999999995 1L 199.89999999999995 1Q 194.29999999999995 1  191.14999999999995-2Q 187.99999999999994-5  187.99999999999994-10.35Q 187.99999999999994-15.7  192.24999999999994-18.75Q 196.49999999999994-21.8  202.84999999999997-21.8Q 209.19999999999996-21.8  215.19999999999996-19.7L 215.19999999999996-19.7L 215.19999999999996-26.6Q 215.19999999999996-31.4  211.69999999999996-32.8L 211.69999999999996-32.8Q 208.99999999999994-33.8  204.24999999999994-33.8Q 199.49999999999994-33.8  195.49999999999994-32.2L 195.49999999999994-32.2L 195.49999999999994-25.9Q 195.49999999999994-24.9  194.69999999999996-24.25Q 193.89999999999995-23.6  192.79999999999995-23.6Q 191.69999999999996-23.6  190.89999999999995-24.25Q 190.09999999999997-24.9  190.09999999999997-25.9L 190.09999999999997-25.9L 190.09999999999997-33.5Q 190.09999999999997-34.8  191.39999999999995-35.5L 191.39999999999995-35.5Q 196.29999999999995-38.4  204.39999999999995-38.4Q 212.49999999999994-38.4  216.49999999999994-35.75Q 220.49999999999994-33.1  220.49999999999994-26.6L 220.49999999999994-26.6L 220.49999999999994-6.6Q 220.49999999999994-4.7  223.19999999999996-4.7ZM 231.69999999999993-37.4L 231.69999999999993-37.4L 236.79999999999993-37.4Q 243.09999999999994-37.4  243.29999999999993-30.6L 243.29999999999993-30.6Q 248.69999999999993-38.4  256.0999999999999-38.4L 256.0999999999999-38.4Q 260.29999999999995-38.4  263.19999999999993-36.8L 263.19999999999993-36.8Q 264.5999999999999-36  264.5999999999999-34.7L 264.5999999999999-34.7L 264.5999999999999-26.3Q 264.5999999999999-25.3  263.79999999999995-24.65Q 262.99999999999994-24  261.8999999999999-24Q 260.79999999999995-24  259.99999999999994-24.65Q 259.19999999999993-25.3  259.19999999999993-26.3L 259.19999999999993-26.3L 259.19999999999993-33.3Q 257.8999999999999-33.8  255.29999999999993-33.8Q 252.69999999999993-33.8  249.39999999999992-31.35Q 246.09999999999994-28.9  243.69999999999993-24.1L 243.69999999999993-24.1L 243.69999999999993-1.3Q 243.69999999999993-0.3  242.89999999999992 0.35Q 242.09999999999994 1  240.99999999999991 1Q 239.89999999999992 1  239.09999999999994 0.35Q 238.29999999999993-0.3  238.29999999999993-1.3L 238.29999999999993-1.3L 238.29999999999993-30.8Q 238.29999999999993-32.7  236.29999999999993-32.7L 236.29999999999993-32.7L 231.69999999999993-32.7Q 230.69999999999993-32.7  230.04999999999993-33.35Q 229.39999999999992-34  229.39999999999992-35Q 229.39999999999992-36  230.04999999999993-36.7Q 230.69999999999993-37.4  231.69999999999993-37.4ZM 298.59999999999997-1.3L 298.59999999999997-56.1L 292.7-56.1Q 291.7-56.1  291.04999999999995-56.75Q 290.4-57.4  290.4-58.4Q 290.4-59.4  291.04999999999995-60.1Q 291.7-60.8  292.7-60.8L 292.7-60.8L 336.9-60.8Q 339.5-60.8  339.5-58.4L 339.5-58.4L 339.5-50.2Q 339.5-49.2  338.7-48.55Q 337.9-47.9  336.79999999999995-47.9Q 335.7-47.9  334.9-48.55Q 334.09999999999997-49.2  334.09999999999997-50.2L 334.09999999999997-50.2L 334.09999999999997-56.1L 304-56.1L 304-32.9L 329.29999999999995-32.9L 329.29999999999995-36.6Q 329.29999999999995-37.6  330.04999999999995-38.25Q 330.79999999999995-38.9  331.9-38.9Q 333-38.9  333.75-38.25Q 334.5-37.6  334.5-36.6L 334.5-36.6L 334.5-24.4Q 334.5-23.4  333.75-22.75Q 333-22.1  331.9-22.1Q 330.79999999999995-22.1  330.04999999999995-22.75Q 329.29999999999995-23.4  329.29999999999995-24.4L 329.29999999999995-24.4L 329.29999999999995-28.2L 304-28.2L 304-1.3Q 304-0.3  303.2 0.35Q 302.4 1  301.29999999999995 1Q 300.2 1  299.4 0.35Q 298.59999999999997-0.3  298.59999999999997-1.3L 298.59999999999997-1.3ZM 376.79999999999995-22Q 376.49999999999994-27.4  373.6499999999999-30.6Q 370.79999999999995-33.8  365.44999999999993-33.8Q 360.0999999999999-33.8  356.49999999999994-30.55Q 352.8999999999999-27.3  351.99999999999994-22L 351.99999999999994-22L 376.79999999999995-22ZM 376.99999999999994-9.6L 376.99999999999994-9.6Q 377.69999999999993-10.8  378.5999999999999-10.8Q 379.49999999999994-10.8  380.3999999999999-10.35Q 381.29999999999995-9.9  381.6499999999999-8.95Q 381.99999999999994-8  381.49999999999994-7.2L 381.49999999999994-7.2Q 376.3999999999999 1  365.29999999999995 1L 365.29999999999995 1Q 356.49999999999994 1  351.44999999999993-4.65Q 346.3999999999999-10.3  346.3999999999999-18.9Q 346.3999999999999-27.5  351.5999999999999-32.95Q 356.79999999999995-38.4  365.29999999999995-38.4Q 373.79999999999995-38.4  377.94999999999993-33.3Q 382.0999999999999-28.2  382.0999999999999-19.7L 382.0999999999999-19.7Q 382.0999999999999-17.4  379.49999999999994-17.4L 379.49999999999994-17.4L 351.79999999999995-17.3Q 352.19999999999993-11.1  355.8499999999999-7.35Q 359.49999999999994-3.6  365.29999999999995-3.6L 365.29999999999995-3.6Q 373.0999999999999-3.6  376.99999999999994-9.6ZM 408.1999999999999-33.8L 408.1999999999999-33.8Q 402.4999999999999-33.8  399.09999999999985-29.7Q 395.6999999999999-25.6  395.6999999999999-18.6Q 395.6999999999999-11.6  399.0499999999999-7.6Q 402.39999999999986-3.6  408.1999999999999-3.6L 408.1999999999999-3.6Q 416.59999999999985-3.6  421.59999999999985-13.1L 421.59999999999985-13.1L 421.59999999999985-27.8Q 418.9999999999999-30.3  415.34999999999985-32.05Q 411.6999999999999-33.8  408.1999999999999-33.8ZM 421.59999999999985-33.1L 421.59999999999985-70.3L 414.9999999999999-70.3Q 413.9999999999999-70.3  413.34999999999985-70.95Q 412.6999999999999-71.6  412.6999999999999-72.6Q 412.6999999999999-73.6  413.34999999999985-74.3Q 413.9999999999999-75  414.9999999999999-75L 414.9999999999999-75L 424.2999999999999-75Q 425.39999999999986-75  426.1999999999999-74.3Q 426.9999999999999-73.6  426.9999999999999-72.6L 426.9999999999999-72.6L 426.9999999999999-6.6Q 426.9999999999999-4.7  428.9999999999999-4.7L 428.9999999999999-4.7L 433.59999999999985-4.7Q 434.59999999999985-4.7  435.2499999999999-4.05Q 435.89999999999986-3.4  435.89999999999986-2.4Q 435.89999999999986-1.4  435.2499999999999-0.7Q 434.59999999999985 0  433.59999999999985 0L 433.59999999999985 0L 428.2999999999999 0Q 421.7999999999999 0  421.9999999999999-7.1L 421.9999999999999-7.1Q 419.7999999999999-3.7  416.2499999999999-1.35Q 412.6999999999999 1  408.1999999999999 1L 408.1999999999999 1Q 399.2999999999999 1  394.84999999999985-4.7Q 390.39999999999986-10.4  390.39999999999986-18.8Q 390.39999999999986-27.2  395.0499999999999-32.8Q 399.6999999999999-38.4  407.7999999999999-38.4Q 415.89999999999986-38.4  421.59999999999985-33.1L 421.59999999999985-33.1ZM 471.39999999999986-22Q 471.09999999999985-27.4  468.24999999999983-30.6Q 465.39999999999986-33.8  460.04999999999984-33.8Q 454.6999999999998-33.8  451.09999999999985-30.55Q 447.49999999999983-27.3  446.59999999999985-22L 446.59999999999985-22L 471.39999999999986-22ZM 471.59999999999985-9.6L 471.59999999999985-9.6Q 472.29999999999984-10.8  473.1999999999998-10.8Q 474.09999999999985-10.8  474.99999999999983-10.35Q 475.89999999999986-9.9  476.24999999999983-8.95Q 476.59999999999985-8  476.09999999999985-7.2L 476.09999999999985-7.2Q 470.99999999999983 1  459.89999999999986 1L 459.89999999999986 1Q 451.09999999999985 1  446.04999999999984-4.65Q 440.99999999999983-10.3  440.99999999999983-18.9Q 440.99999999999983-27.5  446.1999999999998-32.95Q 451.39999999999986-38.4  459.89999999999986-38.4Q 468.39999999999986-38.4  472.54999999999984-33.3Q 476.6999999999998-28.2  476.6999999999998-19.7L 476.6999999999998-19.7Q 476.6999999999998-17.4  474.09999999999985-17.4L 474.09999999999985-17.4L 446.39999999999986-17.3Q 446.79999999999984-11.1  450.4499999999998-7.35Q 454.09999999999985-3.6  459.89999999999986-3.6L 459.89999999999986-3.6Q 467.6999999999998-3.6  471.59999999999985-9.6ZM 483.6999999999998-37.4L 483.6999999999998-37.4L 488.79999999999984-37.4Q 495.09999999999985-37.4  495.29999999999984-30.6L 495.29999999999984-30.6Q 500.6999999999998-38.4  508.09999999999985-38.4L 508.09999999999985-38.4Q 512.2999999999998-38.4  515.1999999999998-36.8L 515.1999999999998-36.8Q 516.5999999999998-36  516.5999999999998-34.7L 516.5999999999998-34.7L 516.5999999999998-26.3Q 516.5999999999998-25.3  515.7999999999998-24.65Q 514.9999999999999-24  513.8999999999999-24Q 512.7999999999998-24  511.99999999999983-24.65Q 511.1999999999998-25.3  511.1999999999998-26.3L 511.1999999999998-26.3L 511.1999999999998-33.3Q 509.89999999999986-33.8  507.29999999999984-33.8Q 504.6999999999998-33.8  501.39999999999986-31.35Q 498.09999999999985-28.9  495.6999999999998-24.1L 495.6999999999998-24.1L 495.6999999999998-1.3Q 495.6999999999998-0.3  494.89999999999986 0.35Q 494.09999999999985 1  492.99999999999983 1Q 491.89999999999986 1  491.09999999999985 0.35Q 490.29999999999984-0.3  490.29999999999984-1.3L 490.29999999999984-1.3L 490.29999999999984-30.8Q 490.29999999999984-32.7  488.29999999999984-32.7L 488.29999999999984-32.7L 483.6999999999998-32.7Q 482.6999999999998-32.7  482.04999999999984-33.35Q 481.39999999999986-34  481.39999999999986-35Q 481.39999999999986-36  482.04999999999984-36.7Q 482.6999999999998-37.4  483.6999999999998-37.4ZM 549.7999999999998-13.6L 549.7999999999998-15.5Q 543.1999999999998-17.3  538.5499999999998-17.3Q 533.8999999999999-17.3  530.9499999999998-15.5Q 527.9999999999999-13.7  527.9999999999999-10.45Q 527.9999999999999-7.2  529.8999999999999-5.4Q 531.7999999999998-3.6  535.0999999999999-3.6L 535.0999999999999-3.6Q 544.2999999999998-3.6  549.7999999999998-13.6L 549.7999999999998-13.6ZM 557.7999999999998-4.7L 557.7999999999998-4.7L 561.6999999999998-4.7Q 562.6999999999998-4.7  563.3499999999999-4Q 563.9999999999999-3.3  563.9999999999999-2.3Q 563.9999999999999-1.3  563.3499999999999-0.65Q 562.6999999999998 0  561.6999999999998 0L 561.6999999999998 0L 557.2999999999998 0Q 553.6999999999998 0  551.7499999999999-1.6Q 549.7999999999998-3.2  549.7999999999998-6.1L 549.7999999999998-6.1Q 549.7999999999998-6.6  549.8999999999999-7.2L 549.8999999999999-7.2Q 544.5999999999999 1  534.4999999999999 1L 534.4999999999999 1Q 528.8999999999999 1  525.7499999999999-2Q 522.5999999999999-5  522.5999999999999-10.35Q 522.5999999999999-15.7  526.8499999999999-18.75Q 531.0999999999999-21.8  537.4499999999998-21.8Q 543.7999999999998-21.8  549.7999999999998-19.7L 549.7999999999998-19.7L 549.7999999999998-26.6Q 549.7999999999998-31.4  546.2999999999998-32.8L 546.2999999999998-32.8Q 543.5999999999999-33.8  538.8499999999999-33.8Q 534.0999999999999-33.8  530.0999999999999-32.2L 530.0999999999999-32.2L 530.0999999999999-25.9Q 530.0999999999999-24.9  529.2999999999998-24.25Q 528.4999999999999-23.6  527.3999999999999-23.6Q 526.2999999999998-23.6  525.4999999999999-24.25Q 524.6999999999998-24.9  524.6999999999998-25.9L 524.6999999999998-25.9L 524.6999999999998-33.5Q 524.6999999999998-34.8  525.9999999999999-35.5L 525.9999999999999-35.5Q 530.8999999999999-38.4  538.9999999999999-38.4Q 547.0999999999999-38.4  551.0999999999999-35.75Q 555.0999999999999-33.1  555.0999999999999-26.6L 555.0999999999999-26.6L 555.0999999999999-6.6Q 555.0999999999999-4.7  557.7999999999998-4.7ZM 596.4999999999999-6.4Q 597.2999999999998-6.9  598.3499999999999-6.7Q 599.3999999999999-6.5  599.7999999999998-5.85Q 600.1999999999998-5.2  600.1999999999998-4.7L 600.1999999999998-4.7Q 600.1999999999998-3.2  599.0999999999999-2.5L 599.0999999999999-2.5Q 593.0999999999999 1  586.1999999999998 1Q 579.2999999999998 1  576.2999999999998-1.85Q 573.2999999999998-4.7  573.2999999999998-11.3L 573.2999999999998-11.3L 573.2999999999998-32.7L 567.6999999999998-32.7Q 566.6999999999998-32.7  566.0499999999998-33.35Q 565.3999999999999-34  565.3999999999999-35Q 565.3999999999999-36  566.0499999999998-36.7Q 566.6999999999998-37.4  567.6999999999998-37.4L 567.6999999999998-37.4L 573.2999999999998-37.4L 573.2999999999998-51.7Q 573.2999999999998-52.7  574.0999999999999-53.35Q 574.8999999999999-54  575.9999999999999-54Q 577.0999999999999-54  577.8999999999999-53.35Q 578.6999999999998-52.7  578.6999999999998-51.7L 578.6999999999998-51.7L 578.6999999999998-37.4L 595.4999999999999-37.4Q 596.4999999999999-37.4  597.1499999999999-36.7Q 597.7999999999998-36  597.7999999999998-35Q 597.7999999999998-34  597.1499999999999-33.35Q 596.4999999999999-32.7  595.4999999999999-32.7L 595.4999999999999-32.7L 578.6999999999998-32.7L 578.6999999999998-11.3Q 578.6999999999998-7.1  580.4499999999998-5.35Q 582.1999999999998-3.6  586.9499999999998-3.6Q 591.6999999999998-3.6  596.4999999999999-6.4L 596.4999999999999-6.4ZM 616.1999999999999-35.1L 616.1999999999999-1.3Q 616.1999999999999-0.3  615.4 0.35Q 614.5999999999999 1  613.5 1Q 612.4 1  611.5999999999999 0.35Q 610.8-0.3  610.8-1.3L 610.8-1.3L 610.8-32.7L 604.1999999999999-32.7Q 603.1999999999999-32.7  602.55-33.35Q 601.9-34  601.9-35Q 601.9-36  602.55-36.7Q 603.1999999999999-37.4  604.1999999999999-37.4L 604.1999999999999-37.4L 613.9-37.4Q 616.1999999999999-37.4  616.1999999999999-35.1L 616.1999999999999-35.1ZM 610.5999999999999-52.4Q 609.6999999999999-53.4  609.6999999999999-54.8Q 609.6999999999999-56.2  610.5999999999999-57.2Q 611.5-58.2  613.0999999999999-58.2Q 614.6999999999999-58.2  615.65-57.2Q 616.5999999999999-56.2  616.5999999999999-54.8Q 616.5999999999999-53.4  615.65-52.4Q 614.6999999999999-51.4  613.0999999999999-51.4Q 611.5-51.4  610.5999999999999-52.4ZM 646.1999999999998-3.6Q 652.2999999999998-3.6  656.1499999999999-7.8Q 659.9999999999999-12  659.9999999999999-18.65Q 659.9999999999999-25.3  656.1499999999999-29.55Q 652.2999999999998-33.8  646.1999999999998-33.8Q 640.0999999999999-33.8  636.2499999999999-29.55Q 632.3999999999999-25.3  632.3999999999999-18.65Q 632.3999999999999-12  636.2499999999999-7.8Q 640.0999999999999-3.6  646.1999999999998-3.6ZM 632.3499999999999-4.55Q 626.9999999999999-10.1  626.9999999999999-18.7Q 626.9999999999999-27.3  632.3999999999999-32.85Q 637.7999999999998-38.4  646.1999999999998-38.4Q 654.5999999999999-38.4  659.9499999999998-32.85Q 665.2999999999998-27.3  665.2999999999998-18.65Q 665.2999999999998-10  659.9499999999998-4.5Q 654.5999999999999 1  646.1499999999999 1Q 637.6999999999998 1  632.3499999999999-4.55ZM 676.9999999999998-32.7L 676.9999999999998-32.7L 672.2999999999997-32.7Q 671.2999999999997-32.7  670.6499999999997-33.35Q 669.9999999999998-34  669.9999999999998-35Q 669.9999999999998-36  670.6499999999997-36.7Q 671.2999999999997-37.4  672.2999999999997-37.4L 672.2999999999997-37.4L 677.6999999999997-37.4Q 683.8999999999997-37.4  683.8999999999997-30.6L 683.8999999999997-30.6Q 689.8999999999997-38.4  698.9999999999998-38.4L 698.9999999999998-38.4Q 704.3999999999997-38.4  707.8499999999998-35.65Q 711.2999999999997-32.9  711.2999999999997-27.6L 711.2999999999997-27.6L 711.2999999999997-6.6Q 711.2999999999997-4.7  713.9999999999998-4.7L 713.9999999999998-4.7L 717.8999999999997-4.7Q 718.8999999999997-4.7  719.5499999999997-4Q 720.1999999999997-3.3  720.1999999999997-2.3Q 720.1999999999997-1.3  719.5499999999997-0.65Q 718.8999999999997 0  717.8999999999997 0L 717.8999999999997 0L 713.9999999999998 0Q 705.8999999999997 0  705.8999999999997-6.5L 705.8999999999997-6.5L 705.8999999999997-27.6Q 705.8999999999997-30.6  704.0499999999997-32.2Q 702.1999999999997-33.8  698.8999999999997-33.8L 698.8999999999997-33.8Q 689.6999999999997-33.8  684.2999999999997-24.2L 684.2999999999997-24.2L 684.2999999999997-1.3Q 684.2999999999997-0.3  683.4999999999998 0.35Q 682.6999999999997 1  681.5999999999998 1Q 680.4999999999998 1  679.6999999999997 0.35Q 678.8999999999997-0.3  678.8999999999997-1.3L 678.8999999999997-1.3L 678.8999999999997-30.8Q 678.8999999999997-32.7  676.9999999999998-32.7Z" data-textpath="Stellar Federation" data-text-anchor="middle" data-font-size="100" data-letterspacing="0" data-side="left" data-offset="0.5" data-dx="0" data-dy="0" data-xmlspace="preserve" data-href="" data-font="Flamenco" data-font-src="/Content/clientfonts/flamenco.woff" data-font-scale="contain" transform="translate(0,0)" data-x="0" data-y="0" fill="url('#linearGradientSk9lrvxnu27m')"></path></g></svg></g></g></svg>
